<?xml version="1.0" encoding="utf-8"?>
<!-- Generator: Adobe Illustrator 18.0.0, SVG Export Plug-In . SVG Version: 6.00 Build 0)  -->
<!DOCTYPE svg PUBLIC "-//W3C//DTD SVG 1.1//EN" "http://www.w3.org/Graphics/SVG/1.1/DTD/svg11.dtd">
<svg version="1.1" id="Layer_1" xmlns="http://www.w3.org/2000/svg" xmlns:xlink="http://www.w3.org/1999/xlink" x="0px" y="0px"
	 viewBox="0 0 1400 980" enable-background="new 0 0 1400 980" xml:space="preserve">
<g>
	<rect fill="#FCFADD" width="1400" height="980"/>
	<g>
		<g>
			<rect x="87.6" y="742.2" fill="#DB8B3D" width="1224.7" height="18"/>
			<g>
				<rect x="124.3" y="501.3" fill="#3BB2E6" width="27.4" height="240.8"/>
				<rect x="186.7" y="501.3" fill="#3BB2E6" width="28.2" height="240.8"/>
				<rect x="151.7" y="501.3" fill="#5AC2EF" width="35" height="240.8"/>
			</g>
			<g>
				<rect x="214.9" y="412.2" fill="#FAA722" width="43.2" height="330"/>
				<g>
					<g>
						<rect x="214.9" y="436.8" fill="#F1F2F2" width="43.2" height="8"/>
						<rect x="214.9" y="453.3" fill="#F1F2F2" width="43.2" height="8"/>
					</g>
					<g>
						<rect x="214.9" y="693" fill="#F1F2F2" width="43.2" height="8"/>
						<rect x="214.9" y="709.5" fill="#F1F2F2" width="43.2" height="8"/>
					</g>
				</g>
			</g>
			<g>
				<rect x="1039.8" y="412.2" fill="#AE1F25" width="71.2" height="330"/>
				<g>
					<g>
						<rect x="1039.8" y="436.8" fill="#BC5357" width="71.2" height="8"/>
						<rect x="1039.8" y="453.3" fill="#BC5357" width="71.2" height="8"/>
					</g>
					<g>
						<rect x="1039.8" y="693" fill="#BC5357" width="71.2" height="8"/>
						<rect x="1039.8" y="709.5" fill="#BC5357" width="71.2" height="8"/>
					</g>
				</g>
			</g>
			<g>
				<rect x="642.1" y="436.8" fill="#DA8327" width="43.2" height="305.3"/>
				<g>
					<g>
						<rect x="642.1" y="459.7" fill="#8E5423" width="43.2" height="7.4"/>
						<rect x="642.1" y="474.9" fill="#8E5423" width="43.2" height="7.4"/>
					</g>
					<g>
						<rect x="642.1" y="696.7" fill="#8E5423" width="43.2" height="7.4"/>
						<rect x="642.1" y="712" fill="#8E5423" width="43.2" height="7.4"/>
					</g>
				</g>
				<rect x="653.7" y="512.4" fill="#8E5423" width="20" height="154.2"/>
			</g>
			<g>
				<rect x="1214.3" y="412.2" fill="#575F88" width="46.7" height="330"/>
				<g>
					<g>
						<rect x="1214.3" y="436.8" fill="#757DA0" width="46.7" height="8"/>
						<rect x="1214.3" y="453.3" fill="#757DA0" width="46.7" height="8"/>
					</g>
					<g>
						<rect x="1214.3" y="693" fill="#757DA0" width="46.7" height="8"/>
						<rect x="1214.3" y="709.5" fill="#757DA0" width="46.7" height="8"/>
					</g>
				</g>
				<rect x="1226.8" y="493.8" fill="#757DA0" width="21.6" height="166.7"/>
			</g>
			<g>
				<rect x="1111" y="496.3" fill="#B68F3B" width="56.6" height="245.8"/>
				<g>
					<g>
						<rect x="1111" y="514.7" fill="#FFCC55" width="56.6" height="6"/>
						<rect x="1111" y="527" fill="#FFCC55" width="56.6" height="6"/>
					</g>
					<g>
						<rect x="1111" y="705.6" fill="#FFCC55" width="56.6" height="6"/>
						<rect x="1111" y="717.8" fill="#FFCC55" width="56.6" height="6"/>
					</g>
				</g>
				<rect x="1126.2" y="557.2" fill="#FFCC55" width="26.2" height="124.2"/>
			</g>
			<g>
				<rect x="258.1" y="470.8" fill="#BF5327" width="68.4" height="271.4"/>
				<path fill="#D87F27" d="M301.5,516.7h-18.4c0,3.9-3.1,7-7,7v165.5c3.9,0,7,3.1,7,7h18.4c0-3.9,3.1-7,7-7V523.7
					C304.7,523.7,301.5,520.6,301.5,516.7z"/>
				<rect x="258.1" y="491.5" fill="#D87F27" width="68.4" height="6.7"/>
				<rect x="258.1" y="713.5" fill="#D87F27" width="68.4" height="6.7"/>
			</g>
			<g>
				<rect x="731.3" y="444" fill="#7F5945" width="75.1" height="298.2"/>
				<path fill="#FFCA57" d="M779,538.5h-20.2c0,2.4-3.4,4.3-7.7,4.3v100.6c4.2,0,7.7,1.9,7.7,4.3H779c0-2.4,3.4-4.3,7.7-4.3V542.8
					C782.4,542.8,779,540.9,779,538.5z"/>
				<rect x="731.3" y="466.8" fill="#FFCA57" width="75.1" height="7.3"/>
				<rect x="731.3" y="710.7" fill="#FFCA57" width="75.1" height="7.3"/>
				<g>
					<circle fill="#FFCA57" cx="744.3" cy="500.1" r="5.6"/>
					<circle fill="#FFCA57" cx="768.9" cy="500.1" r="5.6"/>
					<circle fill="#FFCA57" cx="793.5" cy="500.1" r="5.6"/>
				</g>
				<g>
					<circle fill="#FFCA57" cx="744.3" cy="682.4" r="5.6"/>
					<circle fill="#FFCA57" cx="768.9" cy="682.4" r="5.6"/>
					<circle fill="#FFCA57" cx="793.5" cy="682.4" r="5.6"/>
				</g>
			</g>
			<g>
				
					<rect x="486" y="467.5" transform="matrix(0.9916 -0.1296 0.1296 0.9916 -73.7906 72.5132)" fill="#BE3A27" width="68.4" height="271.4"/>
				<path fill="#F58A68" d="M517.7,513l-18.2,2.4c0.5,3.8-2.2,7.3-6,7.8l21.4,164.1c3.8-0.5,7.3,2.2,7.8,6L541,691
					c-0.5-3.8,2.2-7.3,6-7.8l-21.4-164.1C521.7,519.6,518.2,516.9,517.7,513z"/>
				
					<rect x="471.6" y="489.2" transform="matrix(0.9916 -0.1296 0.1296 0.9916 -59.5664 69.7043)" fill="#F58A68" width="68.4" height="6.7"/>
				
					<rect x="500.3" y="709.3" transform="matrix(0.9916 -0.1296 0.1296 0.9916 -87.8539 75.2902)" fill="#F58A68" width="68.4" height="6.7"/>
			</g>
			<g>
				<rect x="326.5" y="514.1" fill="#5F794F" width="68.3" height="228.1"/>
				<path fill="#C1C863" d="M365.9,564.5h-10.4c-4.3,4.3-6.7,6.7-11,11v105.3c4.3,4.3,6.7,6.7,11,11h10.4c4.3-4.3,6.7-6.7,11-11
					V575.5C372.6,571.2,370.2,568.8,365.9,564.5z"/>
				<rect x="338.5" y="533.5" fill="#C1C863" width="44.3" height="10"/>
				<rect x="338.5" y="711.8" fill="#C1C863" width="44.3" height="10"/>
			</g>
			<g>
				
					<rect x="922" y="474.7" transform="matrix(0.9508 0.3099 -0.3099 0.9508 235.3181 -268.1161)" fill="#A97C50" width="78.9" height="263.5"/>
				<path fill="#C49A6C" d="M989.9,538.4l-11.4-3.7c-6.3,3.2-9.8,5-16,8.1l-37.7,115.7c3.2,6.3,5,9.8,8.1,16l11.4,3.7
					c6.3-3.2,9.8-5,16-8.1l37.7-115.7C994.9,548.2,993.1,544.7,989.9,538.4z"/>
				
					<rect x="967.9" y="502.2" transform="matrix(0.9508 0.3099 -0.3099 0.9508 206.3738 -282.9172)" fill="#C49A6C" width="51.2" height="11.6"/>
				
					<rect x="904" y="698.2" transform="matrix(0.9508 0.3099 -0.3099 0.9508 263.9571 -253.4712)" fill="#C49A6C" width="51.2" height="11.6"/>
			</g>
			<g>
				<rect x="573.8" y="471.4" fill="#5A7A52" width="68.3" height="270.7"/>
				<path fill="#C1C863" d="M611.1,531.3h-8.3c-6.1,0-11,4.9-11,11v127.1c0,7.2,5.9,13.1,13.1,13.1h8.3c6.1,0,11-4.9,11-11V544.3
					C624.2,537.1,618.3,531.3,611.1,531.3z"/>
				<g>
					<path fill="#C1C863" d="M633.2,500.1h-50.5c-1.6,0-2.8-1.3-2.8-2.8l0,0c0-1.6,1.3-2.8,2.8-2.8h50.5c1.6,0,2.8,1.3,2.8,2.8l0,0
						C636.1,498.8,634.8,500.1,633.2,500.1z"/>
					<path fill="#C1C863" d="M633.2,509.9h-50.5c-1.6,0-2.8-1.3-2.8-2.8l0,0c0-1.6,1.3-2.8,2.8-2.8h50.5c1.6,0,2.8,1.3,2.8,2.8l0,0
						C636.1,508.6,634.8,509.9,633.2,509.9z"/>
				</g>
				<g>
					<path fill="#C1C863" d="M633.2,709.2h-50.5c-1.6,0-2.8-1.3-2.8-2.8l0,0c0-1.6,1.3-2.8,2.8-2.8h50.5c1.6,0,2.8,1.3,2.8,2.8l0,0
						C636.1,707.9,634.8,709.2,633.2,709.2z"/>
					<path fill="#C1C863" d="M633.2,718.9h-50.5c-1.6,0-2.8-1.3-2.8-2.8l0,0c0-1.6,1.3-2.8,2.8-2.8h50.5c1.6,0,2.8,1.3,2.8,2.8l0,0
						C636.1,717.6,634.8,718.9,633.2,718.9z"/>
				</g>
			</g>
			<rect x="394.8" y="480.8" fill="#F7CF51" width="25.5" height="261.3"/>
			<rect x="420.9" y="471.4" fill="#DB7F27" width="25.5" height="270.7"/>
			<rect x="446.4" y="496.3" fill="#BF5527" width="25.5" height="245.8"/>
			<rect x="806.5" y="480.8" fill="#798675" width="25.5" height="261.3"/>
			<rect x="832" y="480.8" fill="#96CB85" width="25.5" height="261.3"/>
			<rect x="857.5" y="480.8" fill="#52724A" width="25.5" height="261.3"/>
			<g>
				<rect x="684.6" y="412.2" fill="#AE1F25" width="46.7" height="330"/>
				<g>
					<path fill="#BC5357" d="M708,444L708,444c-6.4,0-11.5,5.1-11.5,11.5v19.3c0,6.4,5.1,11.5,11.5,11.5l0,0
						c6.4,0,11.5-5.1,11.5-11.5v-19.3C719.5,449.1,714.3,444,708,444z"/>
					<path fill="#BC5357" d="M708,668.1L708,668.1c-6.4,0-11.5,5.1-11.5,11.5v19.3c0,6.4,5.1,11.5,11.5,11.5l0,0
						c6.4,0,11.5-5.1,11.5-11.5v-19.3C719.5,673.3,714.3,668.1,708,668.1z"/>
				</g>
				<g>
					<rect x="697.5" y="504.5" fill="#BC5357" width="5" height="145.3"/>
				</g>
				<g>
					<rect x="714.5" y="504.5" fill="#BC5357" width="5" height="145.3"/>
				</g>
			</g>
			<g>
				<rect x="1167.6" y="444" fill="#815C3F" width="46.7" height="298.2"/>
				<g>
					<path fill="#C2C864" d="M1190.9,472.7L1190.9,472.7c-6.4,0-11.5,4.7-11.5,10.4v17.4c0,5.7,5.1,10.4,11.5,10.4l0,0
						c6.4,0,11.5-4.7,11.5-10.4v-17.4C1202.4,477.4,1197.3,472.7,1190.9,472.7z"/>
					<path fill="#C2C864" d="M1190.9,675.3L1190.9,675.3c-6.4,0-11.5,4.7-11.5,10.4V703c0,5.7,5.1,10.4,11.5,10.4l0,0
						c6.4,0,11.5-4.7,11.5-10.4v-17.4C1202.4,679.9,1197.3,675.3,1190.9,675.3z"/>
				</g>
				<g>
					<rect x="1180.5" y="527.5" fill="#C2C864" width="5" height="131.3"/>
				</g>
				<g>
					<rect x="1197.4" y="527.5" fill="#C2C864" width="5" height="131.3"/>
				</g>
			</g>
		</g>
		<g>
			<rect x="87.6" y="360.4" fill="#DB8B3D" width="1224.7" height="18"/>
			<g>
				<rect x="1248.3" y="119.5" fill="#3BB2E6" width="27.4" height="240.8"/>
				<rect x="1185.1" y="119.5" fill="#3BB2E6" width="28.2" height="240.8"/>
				<rect x="1213.3" y="119.5" fill="#5AC2EF" width="35" height="240.8"/>
			</g>
			<g>
				<rect x="1141.9" y="30.4" fill="#FAA722" width="43.2" height="330"/>
				<g>
					<g>
						<rect x="1141.9" y="55" fill="#F1F2F2" width="43.2" height="8"/>
						<rect x="1141.9" y="71.5" fill="#F1F2F2" width="43.2" height="8"/>
					</g>
					<g>
						<rect x="1141.9" y="311.2" fill="#F1F2F2" width="43.2" height="8"/>
						<rect x="1141.9" y="327.7" fill="#F1F2F2" width="43.2" height="8"/>
					</g>
				</g>
			</g>
			<g>
				<rect x="289" y="30.4" fill="#AE1F25" width="71.2" height="330"/>
				<g>
					<g>
						<rect x="289" y="55" fill="#BC5357" width="71.2" height="8"/>
						<rect x="289" y="71.5" fill="#BC5357" width="71.2" height="8"/>
					</g>
					<g>
						<rect x="289" y="311.2" fill="#BC5357" width="71.2" height="8"/>
						<rect x="289" y="327.7" fill="#BC5357" width="71.2" height="8"/>
					</g>
				</g>
			</g>
			<g>
				<rect x="714.7" y="55" fill="#DA8327" width="43.2" height="305.3"/>
				<g>
					<g>
						<rect x="714.7" y="77.9" fill="#8E5423" width="43.2" height="7.4"/>
						<rect x="714.7" y="93.1" fill="#8E5423" width="43.2" height="7.4"/>
					</g>
					<g>
						<rect x="714.7" y="314.9" fill="#8E5423" width="43.2" height="7.4"/>
						<rect x="714.7" y="330.1" fill="#8E5423" width="43.2" height="7.4"/>
					</g>
				</g>
				<rect x="726.3" y="130.6" fill="#8E5423" width="20" height="154.2"/>
			</g>
			<g>
				<rect x="139" y="30.4" fill="#575F88" width="46.7" height="330"/>
				<g>
					<g>
						<rect x="139" y="55" fill="#757DA0" width="46.7" height="8"/>
						<rect x="139" y="71.5" fill="#757DA0" width="46.7" height="8"/>
					</g>
					<g>
						<rect x="139" y="311.2" fill="#757DA0" width="46.7" height="8"/>
						<rect x="139" y="327.7" fill="#757DA0" width="46.7" height="8"/>
					</g>
				</g>
				<rect x="151.5" y="112" fill="#757DA0" width="21.6" height="166.7"/>
			</g>
			<g>
				<rect x="232.4" y="114.5" fill="#B68F3B" width="56.6" height="245.8"/>
				<g>
					<g>
						<rect x="232.4" y="132.9" fill="#FFCC55" width="56.6" height="6"/>
						<rect x="232.4" y="145.2" fill="#FFCC55" width="56.6" height="6"/>
					</g>
					<g>
						<rect x="232.4" y="323.7" fill="#FFCC55" width="56.6" height="6"/>
						<rect x="232.4" y="336" fill="#FFCC55" width="56.6" height="6"/>
					</g>
				</g>
				<rect x="247.6" y="175.4" fill="#FFCC55" width="26.2" height="124.2"/>
			</g>
			<g>
				<rect x="1073.5" y="89" fill="#BF5327" width="68.4" height="271.4"/>
				<path fill="#D87F27" d="M1098.5,134.9h18.4c0,3.9,3.1,7,7,7v165.5c-3.9,0-7,3.1-7,7h-18.4c0-3.9-3.1-7-7-7V141.9
					C1095.3,141.9,1098.5,138.8,1098.5,134.9z"/>
				<rect x="1073.5" y="109.7" fill="#D87F27" width="68.4" height="6.7"/>
				<rect x="1073.5" y="331.7" fill="#D87F27" width="68.4" height="6.7"/>
			</g>
			<g>
				<rect x="593.5" y="62.2" fill="#7F5945" width="75.1" height="298.2"/>
				<path fill="#FFCA57" d="M621,156.7h20.2c0,2.4,3.4,4.3,7.7,4.3v100.6c-4.2,0-7.7,1.9-7.7,4.3H621c0-2.4-3.4-4.3-7.7-4.3V161
					C617.6,161,621,159,621,156.7z"/>
				<rect x="593.5" y="85" fill="#FFCA57" width="75.1" height="7.3"/>
				<rect x="593.5" y="328.9" fill="#FFCA57" width="75.1" height="7.3"/>
				<g>
					<circle fill="#FFCA57" cx="655.7" cy="118.3" r="5.6"/>
					<circle fill="#FFCA57" cx="631.1" cy="118.3" r="5.6"/>
					<circle fill="#FFCA57" cx="606.5" cy="118.3" r="5.6"/>
				</g>
				<g>
					<circle fill="#FFCA57" cx="655.7" cy="300.6" r="5.6"/>
					<circle fill="#FFCA57" cx="631.1" cy="300.6" r="5.6"/>
					<circle fill="#FFCA57" cx="606.5" cy="300.6" r="5.6"/>
				</g>
			</g>
			<g>
				
					<rect x="845.6" y="85.7" transform="matrix(-0.9916 -0.1296 0.1296 -0.9916 1723.4324 554.9088)" fill="#BE3A27" width="68.4" height="271.4"/>
				<path fill="#F58A68" d="M882.3,131.2l18.2,2.4c-0.5,3.8,2.2,7.3,6,7.8l-21.4,164.1c-3.8-0.5-7.3,2.2-7.8,6l-18.2-2.4
					c0.5-3.8-2.2-7.3-6-7.8l21.4-164.1C878.3,137.7,881.8,135,882.3,131.2z"/>
				
					<rect x="860" y="107.4" transform="matrix(-0.9916 -0.1296 0.1296 -0.9916 1766.5931 336.3383)" fill="#F58A68" width="68.4" height="6.7"/>
				
					<rect x="831.3" y="327.5" transform="matrix(-0.9916 -0.1296 0.1296 -0.9916 1680.7596 771.0075)" fill="#F58A68" width="68.4" height="6.7"/>
			</g>
			<g>
				<rect x="1005.2" y="132.3" fill="#5F794F" width="68.3" height="228.1"/>
				<path fill="#C1C863" d="M1034.1,182.7h10.4c4.3,4.3,6.7,6.7,11,11l0,105.3c-4.3,4.3-6.7,6.7-11,11h-10.4c-4.3-4.3-6.7-6.7-11-11
					V193.7C1027.4,189.4,1029.8,187,1034.1,182.7z"/>
				<rect x="1017.2" y="151.7" fill="#C1C863" width="44.3" height="10"/>
				<rect x="1017.2" y="330" fill="#C1C863" width="44.3" height="10"/>
			</g>
			<g>
				
					<rect x="399.1" y="92.9" transform="matrix(-0.9508 0.3099 -0.3099 -0.9508 925.2101 302.3247)" fill="#A97C50" width="78.9" height="263.5"/>
				<path fill="#C49A6C" d="M410.1,156.6l11.4-3.7c6.3,3.2,9.8,5,16,8.1l37.7,115.7c-3.2,6.3-5,9.8-8.1,16l-11.4,3.7
					c-6.3-3.2-9.8-5-16-8.1l-37.7-115.7C405.1,166.4,406.9,162.8,410.1,156.6z"/>
				
					<rect x="380.9" y="120.4" transform="matrix(-0.9508 0.3099 -0.3099 -0.9508 832.0529 120.1513)" fill="#C49A6C" width="51.2" height="11.6"/>
				
					<rect x="444.7" y="316.3" transform="matrix(-0.9508 0.3099 -0.3099 -0.9508 1017.3842 482.5768)" fill="#C49A6C" width="51.2" height="11.6"/>
			</g>
			<g>
				<rect x="757.9" y="89.6" fill="#5A7A52" width="68.3" height="270.7"/>
				<path fill="#C1C863" d="M788.9,149.4h8.3c6.1,0,11,4.9,11,11v127.1c0,7.2-5.9,13.1-13.1,13.1h-8.3c-6.1,0-11-4.9-11-11V162.5
					C775.8,155.3,781.7,149.4,788.9,149.4z"/>
				<g>
					<path fill="#C1C863" d="M766.8,118.3h50.5c1.6,0,2.8-1.3,2.8-2.8v0c0-1.6-1.3-2.8-2.8-2.8h-50.5c-1.6,0-2.8,1.3-2.8,2.8v0
						C763.9,117,765.2,118.3,766.8,118.3z"/>
					<path fill="#C1C863" d="M766.8,128h50.5c1.6,0,2.8-1.3,2.8-2.8v0c0-1.6-1.3-2.8-2.8-2.8h-50.5c-1.6,0-2.8,1.3-2.8,2.8v0
						C763.9,126.8,765.2,128,766.8,128z"/>
				</g>
				<g>
					<path fill="#C1C863" d="M766.8,327.3h50.5c1.6,0,2.8-1.3,2.8-2.8l0,0c0-1.6-1.3-2.8-2.8-2.8h-50.5c-1.6,0-2.8,1.3-2.8,2.8l0,0
						C763.9,326.1,765.2,327.3,766.8,327.3z"/>
					<path fill="#C1C863" d="M766.8,337.1h50.5c1.6,0,2.8-1.3,2.8-2.8l0,0c0-1.6-1.3-2.8-2.8-2.8h-50.5c-1.6,0-2.8,1.3-2.8,2.8l0,0
						C763.9,335.8,765.2,337.1,766.8,337.1z"/>
				</g>
			</g>
			<rect x="979.7" y="99" fill="#F7CF51" width="25.5" height="261.3"/>
			<rect x="953.6" y="89.6" fill="#DB7F27" width="25.5" height="270.7"/>
			<rect x="928.1" y="114.5" fill="#BF5527" width="25.5" height="245.8"/>
			<rect x="568" y="99" fill="#798675" width="25.5" height="261.3"/>
			<rect x="542.5" y="99" fill="#96CB85" width="25.5" height="261.3"/>
			<rect x="517" y="99" fill="#52724A" width="25.5" height="261.3"/>
			<g>
				<rect x="668.7" y="30.4" fill="#AE1F25" width="46.7" height="330"/>
				<g>
					<path fill="#BC5357" d="M692,62.2L692,62.2c6.4,0,11.5,5.1,11.5,11.5v19.3c0,6.4-5.1,11.5-11.5,11.5l0,0
						c-6.4,0-11.5-5.1-11.5-11.5V73.7C680.5,67.3,685.7,62.2,692,62.2z"/>
					<path fill="#BC5357" d="M692,286.3L692,286.3c6.4,0,11.5,5.1,11.5,11.5V317c0,6.4-5.1,11.5-11.5,11.5l0,0
						c-6.4,0-11.5-5.1-11.5-11.5v-19.3C680.5,291.4,685.7,286.3,692,286.3z"/>
				</g>
				<g>
					<rect x="697.5" y="122.7" fill="#BC5357" width="5" height="145.3"/>
				</g>
				<g>
					<rect x="680.5" y="122.7" fill="#BC5357" width="5" height="145.3"/>
				</g>
			</g>
			<g>
				<rect x="185.7" y="62.2" fill="#815C3F" width="46.7" height="298.2"/>
				<g>
					<path fill="#C2C864" d="M209.1,90.9L209.1,90.9c6.4,0,11.5,4.7,11.5,10.4v17.4c0,5.7-5.1,10.4-11.5,10.4l0,0
						c-6.4,0-11.5-4.7-11.5-10.4v-17.4C197.6,95.6,202.7,90.9,209.1,90.9z"/>
					<path fill="#C2C864" d="M209.1,293.4L209.1,293.4c6.4,0,11.5,4.7,11.5,10.4v17.4c0,5.7-5.1,10.4-11.5,10.4l0,0
						c-6.4,0-11.5-4.7-11.5-10.4v-17.4C197.6,298.1,202.7,293.4,209.1,293.4z"/>
				</g>
				<g>
					<rect x="214.5" y="145.6" fill="#C2C864" width="5" height="131.3"/>
				</g>
				<g>
					<rect x="197.6" y="145.6" fill="#C2C864" width="5" height="131.3"/>
				</g>
			</g>
		</g>
		<g>
			<rect x="776.3" y="507.1" fill="#455A66" width="193.4" height="12.8"/>
			<g>
				<g>
					<path fill="#CFDB39" d="M754.3,791.5c12.1,12.1,27.6,18.6,43.4,19.6l41.3-18.5c-7.6-3.3-14.7-8-20.9-14.2
						c-19.5-19.5-24.5-47.9-15.2-72.1l-67.9,30.5C732.9,756.3,739.4,776.5,754.3,791.5z"/>
					<path fill="#CFDB39" d="M690.3,860.1c16.4,0,31.4-5.9,43.1-15.6h-0.6c-0.8,0-1.7-0.5-2-1.3c-0.4-1,0.1-2.1,1.1-2.6l23.3-10.5
						c-11.9-2.7-23.2-8.7-32.5-18c-16.7-16.7-22.8-40.1-18.3-61.7l-10.8,4.8c-31.9,14.3-53.3,45-56.1,79.4
						C650,850.1,669,860.1,690.3,860.1z"/>
					<path fill="#B0B537" d="M722.8,812.1c9.3,9.3,20.6,15.3,32.5,18l42.4-19c-15.8-1-31.3-7.6-43.4-19.6
						c-15-15-21.4-35.2-19.4-54.7l-30.4,13.6C700,772,706.1,795.3,722.8,812.1z"/>
					<path fill="#B0B537" d="M721.1,882.3c12.5-9.9,20.6-23.4,23.9-37.9h-11.5c-11.7,9.7-26.7,15.6-43.1,15.6
						c-21.3,0-40.3-9.9-52.7-25.4c-0.2,2.6-0.3,5.1-0.3,7.7c0,17.5,4.7,33.8,13,47.9C672.7,901,700.3,898.8,721.1,882.3z"/>
					<path fill="#B0B537" d="M818.1,778.3c6.2,6.2,13.3,10.9,20.9,14.2l39.5-17.7c-10.6-3.1-20.6-8.8-28.9-17.1
						c-17.5-17.5-23.4-42.2-17.7-64.5l-29.1,13.1C793.6,730.4,798.6,758.9,818.1,778.3z"/>
					<path fill="#CFDB39" d="M935,647c9.9-9.9,16.1-22.1,18.5-34.9c-18.7-33.7-57.2-59.3-121.7-59.3l-18.1-1.2
						c-26.1,0-35.9,35.1-35.5,61.3c0.4,25.6,21.9,46,47.5,46h38.6c4.2,0,8,2.6,9.3,6.6C895.2,669.8,918.4,663.6,935,647z"/>
					<path fill="#CFDB39" d="M815.2,864.4c-5.3-14.5-15-26-27.1-33.7l-24,11.3c-3.3,1.6-6.9,2.4-10.5,2.4H745
						c-3.3,14.5-11.3,28-23.9,37.9c-20.8,16.5-48.4,18.7-70.9,8.1c16.6,28.4,47.4,47.6,82.6,47.6h20.8c17.3,0,34.8-3.9,50.5-11.3
						l4.2-2C819.6,907.4,822.9,885.3,815.2,864.4z"/>
					<path fill="#CFDB39" d="M849.6,757.7c8.3,8.3,18.3,14,28.9,17.1l28.2-12.7c34.9-15.6,58.1-49.4,60.6-87.2
						c-12.3,13-29.7,21.1-48.9,21.1c-18.9,0-35.9-7.8-48.2-20.2c-0.5,0.4-1.1,0.8-1.7,1L832,693.2
						C826.3,715.6,832.1,740.3,849.6,757.7z"/>
					<path fill="#B0B537" d="M967.4,675c0.1-2.2,0.2-4.5,0.2-6.8c0-19.3-4.4-38.8-14.1-56.2c-2.5,12.8-8.6,25-18.5,34.9
						c-16.7,16.7-39.9,22.8-61.4,18.4c0.1,0.2,0.1,0.4,0.2,0.5c1,3.9-0.6,7.7-3.5,9.9c12.2,12.5,29.3,20.2,48.2,20.2
						C937.7,696.1,955.1,688,967.4,675z"/>
					<path fill="#B0B537" d="M1251.2,850.7c0.3-12.5-2.8-24.3-8.5-34.5c-13.5-5.7-28-9.4-43.2-10.7c9.1,11.8,14.4,26.7,14,42.8
						c-0.5,20.2-9.9,38.2-24.3,50.2c10.1,0.5,19.5,3.9,27.2,9.5C1236.6,896.8,1250.6,875.5,1251.2,850.7z"/>
					<path fill="#CFDB39" d="M1213.5,848.4c0.4-16.1-4.9-31-14-42.8c-4.2-0.4-8.5-0.6-12.8-0.6h-6.5c-16.5,0-32.6,3.4-47.7,10
						l-31.2,13.7c10.6,9.8,18.1,23,20.7,38.4c3.9,23.5-4.9,46.3-21.3,61.2c8.2-1.7,16.2-4.2,24-7.7l45.5-20.1
						c3.1-1.4,6.5-2.1,10-2.1h6.5c0.9,0,1.7,0,2.6,0.1C1203.6,886.5,1213,868.6,1213.5,848.4z"/>
					<path fill="#CFDB39" d="M1314.1,881.2c-15.6-29-40.9-52-71.4-64.9c5.7,10.2,8.8,22,8.5,34.5c-0.6,24.8-14.5,46.1-34.8,57.4
						c6.3,4.5,11.5,10.4,15.2,17.2c8.1,14.9,23.3,24.4,40.3,24.4h1.5C1308.5,949.6,1330.8,912.1,1314.1,881.2z"/>
					<path fill="#B0B537" d="M1122,867.1c-2.6-15.3-10.1-28.6-20.7-38.4l-14.4,6.3c-6.7,2.9-14.2,2.8-20.8-0.4l-2.3-1.1
						c10.6,9.8,18.1,23,20.7,38.4c3.7,22.1-3.8,43.4-18.3,58.3c11.5,1.1,23.1,0.4,34.5-1.9C1117.1,913.4,1125.9,890.7,1122,867.1z"
						/>
					<path fill="#CFDB39" d="M1084.5,871.9c-2.6-15.3-10.1-28.6-20.7-38.4l-13.6-6.6c-25.5-12.4-55-15.1-82.3-7.8
						c9.4,7.4,16.8,17.5,21.3,29.5c8.5,23.2,3.5,48-11,65.8l11.9-4.4c6.3-2.3,13.3-1.9,19.3,1l15.9,7.7c13,6.3,26.8,10.1,40.8,11.4
						C1080.7,915.3,1088.2,894,1084.5,871.9z"/>
					<path fill="#CFDB39" d="M953.3,860.3c-4.3-11.7-11.5-21.4-20.4-28.8l-11.6,4.3c-6.9,2.5-14.5,1.9-20.9-1.8
						c-23.2-13.4-50-18.3-75.9-14.6c11.9,7.7,21.4,19.1,26.7,33.4c7.5,20.4,4.5,42.1-6.3,59.2c3,0.4,6,1.5,8.8,3
						c26.7,15.4,58.1,19.7,87.7,12.3C956.6,909.4,962,884,953.3,860.3z"/>
					<path fill="#B0B537" d="M851.2,852.8c-5.2-14.3-14.8-25.7-26.7-33.4c-11.5,1.7-22.9,5-33.7,10.1l-2.7,1.3
						c12.1,7.7,21.8,19.2,27.1,33.7c7.6,20.8,4.4,43-6.9,60.2l22.5-10.6c4.5-2.1,9.4-2.8,14.1-2.1
						C855.7,894.9,858.7,873.2,851.2,852.8z"/>
					<path fill="#B0B537" d="M989.3,848.7c-4.4-12-11.9-22.1-21.3-29.5c-3.4,0.9-6.8,2-10.1,3.2l-25,9.2c9,7.4,16.1,17.1,20.4,28.8
						c8.7,23.7,3.3,49.1-12,67c4.1-1,8.2-2.3,12.2-3.7l24.7-9.1C992.7,896.7,997.7,871.8,989.3,848.7z"/>
				</g>
				<path fill="#CFDB39" d="M819.3,551.5h-29.6c-37.6,0-68.1,30.5-68.1,68.1v0c0,37.6,30.5,68.1,68.1,68.1h29.6
					c37.6,0,68.1-30.5,68.1-68.1v0C887.5,582,857,551.5,819.3,551.5z"/>
				<g>
					<path fill="#FFFFFF" d="M744.6,573.9c-12.3,0-22.3,10-22.3,22.3s10,22.3,22.3,22.3s22.3-10,22.3-22.3S756.9,573.9,744.6,573.9z
						"/>
					<path fill="#FFFFFF" d="M817.3,573.9c-12.3,0-22.3,10-22.3,22.3s10,22.3,22.3,22.3s22.3-10,22.3-22.3S829.6,573.9,817.3,573.9z
						"/>
					<path fill="#594A42" d="M817.3,563.7c-16.2,0-29.6,11.9-32,27.3h-8.7c-2.4-15.5-15.9-27.3-32-27.3c-17.9,0-32.4,14.5-32.4,32.4
						c0,17.9,14.5,32.4,32.4,32.4c16.2,0,29.6-11.9,32-27.3h8.7c2.4,15.5,15.9,27.3,32,27.3c17.9,0,32.4-14.5,32.4-32.4
						C849.8,578.3,835.2,563.7,817.3,563.7z M817.3,618.4c-12.3,0-22.3-10-22.3-22.3s10-22.3,22.3-22.3s22.3,10,22.3,22.3
						S829.6,618.4,817.3,618.4z M744.6,618.4c-12.3,0-22.3-10-22.3-22.3s10-22.3,22.3-22.3s22.3,10,22.3,22.3
						S756.9,618.4,744.6,618.4z"/>
				</g>
				<g>
					<path fill="#FFFFFF" d="M832.2,637.6h-77.1c0,3.7,0.6,7.2,1.8,10.5h73.5C831.6,644.8,832.2,641.3,832.2,637.6z"/>
					<path fill="#E94D40" d="M756.9,648.1c4.3,12.3,16,21.1,29.8,21.1h13.9c13.7,0,25.4-8.8,29.8-21.1H756.9z"/>
				</g>
				<g>
					<circle fill="#414042" cx="737.6" cy="596.8" r="9.2"/>
					<circle fill="#FFFFFF" cx="735" cy="593.5" r="3.8"/>
				</g>
				<g>
					<circle fill="#414042" cx="811.5" cy="596.8" r="9.2"/>
					<circle fill="#FFFFFF" cx="808.9" cy="593.5" r="3.8"/>
				</g>
			</g>
			<rect x="761.8" y="519.9" fill="#39484F" width="93" height="37.4"/>
			<rect x="665.1" y="507.1" fill="#77919D" width="193.4" height="12.8"/>
		</g>
		<g>
			<path fill="#5F808F" d="M392.5,877.2V844c4.7,0,8.5-3.8,8.5-8.5s-3.8-8.5-8.5-8.5H202.8c-18.5,0-33.6,15.1-33.6,33.6
				s15.1,33.6,33.6,33.6h189.6c4.7,0,8.5-3.8,8.5-8.5S397.2,877.2,392.5,877.2z"/>
			<g>
				<path fill="#455A66" d="M545.5,877.2h-169c-9.2,0-16.6-7.5-16.6-16.6s7.5-16.6,16.6-16.6h169c4.7,0,8.5-3.8,8.5-8.5
					s-3.8-8.5-8.5-8.5h-169c-18.5,0-33.6,15.1-33.6,33.6s15.1,33.6,33.6,33.6h169c4.7,0,8.5-3.8,8.5-8.5S550.2,877.2,545.5,877.2z"
					/>
				<g>
					<path fill="#E6E6E6" d="M360.6,855.9c-0.4,1.5-0.7,3.1-0.7,4.7c0,9.2,7.5,16.6,16.6,16.6h169v-21.3H360.6z"/>
					<path fill="#D1D3D4" d="M545.5,844h-169c-7.5,0-13.9,5-15.9,11.9h184.9V844z"/>
				</g>
			</g>
		</g>
		<g>
			<path fill="#FBB217" d="M331.9,938.4v-39.1c0-3-2.4-5.4-5.4-5.4h179.8c3,0,5.4,2.4,5.4,5.4v39.1c0,3-2.4,5.4-5.4,5.4H326.5
				C329.5,943.8,331.9,941.4,331.9,938.4z"/>
			<path fill="#F27C21" d="M124.3,932.9L124.3,932.9h148.8h0h48v-18.1v-10.1h-48h0H124.3h0c-3,0-5.4-2.4-5.4-5.4
				c0-3,2.4-5.4,5.4-5.4h148.8h53.4c3,0,5.4,2.4,5.4,5.4v39.1c0,3-2.4,5.4-5.4,5.4h-53.4H124.3c-3,0-5.4-2.4-5.4-5.4
				C118.9,935.4,121.3,932.9,124.3,932.9z"/>
			<polygon fill="#DBD6DC" points="273.1,904.7 321.1,904.7 321.1,914.9 124.3,914.9 124.3,904.7 273.1,904.7 			"/>
			<polygon fill="#F3F0F8" points="321.1,914.9 321.1,932.9 273.1,932.9 273.1,932.9 124.3,932.9 124.3,914.9 			"/>
		</g>
		<g>
			<g>
				<path fill="#F05325" d="M556.3,910.8c0,2.6,2.1,4.7,4.7,4.7h163.8v-24.1H556.3V910.8z"/>
				<path fill="#F05325" d="M724.9,845.4H561.1c-2.6,0-4.7,2.1-4.7,4.7v23.5h168.6V845.4z"/>
				<rect x="556.3" y="873.6" fill="#F58A68" width="168.6" height="17.8"/>
			</g>
			<g>
				<path fill="#BE3A27" d="M901,903.3H718.5v-45.6H901c3.4,0,6.1-2.7,6.1-6.1c0-3.4-2.7-6.1-6.1-6.1H712.3c-3.4,0-6.1,2.7-6.1,6.1
					v57.9c0,3.4,2.7,6.1,6.1,6.1H901c3.4,0,6.1-2.7,6.1-6.1C907.1,906,904.4,903.3,901,903.3z"/>
				<g>
					<rect x="718.5" y="857.7" fill="#DBD6DC" width="182.5" height="22.3"/>
					<rect x="718.5" y="879.9" fill="#F3F0F8" width="182.5" height="23.4"/>
				</g>
			</g>
		</g>
		<g>
			<path fill="#46B6AC" d="M683.3,940.7v-22.2c0-1.7-1.4-3.1-3.1-3.1h266.5c1.7,0,3.1,1.4,3.1,3.1v22.2c0,1.7-1.4,3.1-3.1,3.1H680.2
				C681.9,943.8,683.3,942.4,683.3,940.7z"/>
			<path fill="#007A6A" d="M495.8,937.6L495.8,937.6h194.1l0,0h27.2v-10.3v-5.8h-27.2l0,0H495.8h0c-1.7,0-3.1-1.4-3.1-3.1
				c0-1.7,1.4-3.1,3.1-3.1h194.1h30.3c1.7,0,3.1,1.4,3.1,3.1v22.2c0,1.7-1.4,3.1-3.1,3.1h-30.3H495.8c-1.7,0-3.1-1.4-3.1-3.1
				C492.7,939,494.1,937.6,495.8,937.6z"/>
			<polygon fill="#DBD6DC" points="689.9,921.6 717.1,921.6 717.1,927.4 495.8,927.4 495.8,921.6 689.9,921.6 			"/>
			<polygon fill="#F3F0F8" points="717.1,927.4 717.1,937.6 689.9,937.6 689.9,937.6 495.8,937.6 495.8,927.4 			"/>
		</g>
		<g>
			<path fill="#5AC2EF" d="M261.2,823.9v-22.2c0-1.7-1.4-3.1-3.1-3.1h246.5c1.7,0,3.1,1.4,3.1,3.1v22.2c0,1.7-1.4,3.1-3.1,3.1H258.1
				C259.8,827,261.2,825.6,261.2,823.9z"/>
			<path fill="#1B87C8" d="M113.7,820.8L113.7,820.8h154.1h0h27.2v-10.3v-5.8h-27.2h0H113.7h0c-1.7,0-3.1-1.4-3.1-3.1
				c0-1.7,1.4-3.1,3.1-3.1h154.1h30.3c1.7,0,3.1,1.4,3.1,3.1v22.2c0,1.7-1.4,3.1-3.1,3.1h-30.3H113.7c-1.7,0-3.1-1.4-3.1-3.1
				C110.6,822.2,112,820.8,113.7,820.8z"/>
			<polygon fill="#DBD6DC" points="267.8,804.8 295.1,804.8 295.1,810.5 113.7,810.5 113.7,804.8 267.8,804.8 			"/>
			<polygon fill="#F3F0F8" points="295.1,810.5 295.1,820.8 267.8,820.8 267.8,820.8 113.7,820.8 113.7,810.5 			"/>
		</g>
		<g>
			<path fill="#9375B5" d="M311.9,795.6v-22.2c0-1.7-1.4-3.1-3.1-3.1h246.5c1.7,0,3.1,1.4,3.1,3.1v22.2c0,1.7-1.4,3.1-3.1,3.1H308.8
				C310.5,798.6,311.9,797.3,311.9,795.6z"/>
			<path fill="#785CA7" d="M164.4,792.5L164.4,792.5h154.1h0h27.2v-10.3v-5.8h-27.2h0H164.4h0c-1.7,0-3.1-1.4-3.1-3.1
				c0-1.7,1.4-3.1,3.1-3.1h154.1h30.3c1.7,0,3.1,1.4,3.1,3.1v22.2c0,1.7-1.4,3.1-3.1,3.1h-30.3H164.4c-1.7,0-3.1-1.4-3.1-3.1
				S162.7,792.5,164.4,792.5z"/>
			<polygon fill="#DBD6DC" points="318.5,776.5 345.7,776.5 345.7,782.2 164.4,782.2 164.4,776.5 318.5,776.5 			"/>
			<polygon fill="#F3F0F8" points="345.7,782.2 345.7,792.5 318.5,792.5 318.5,792.5 164.4,792.5 164.4,782.2 			"/>
		</g>
		<path fill="#726658" d="M1356.4,943.8H43.6c-5.3,0-9.6,4.3-9.6,9.6s4.3,9.6,9.6,9.6h1312.8c5.3,0,9.6-4.3,9.6-9.6
			S1361.7,943.8,1356.4,943.8z"/>
	</g>
</g>
</svg>
